<svg xmlns="http://www.w3.org/2000/svg" viewBox="0 0 512 512">
    <title>CSS3</title>
    <path fill="#1572B6" d="M71,460 L30,0 481,0 440,460 255,512"/>
    <path fill="#33A9DC" d="M256,472 L405,431 440,37 256,37"/>
    <g transform="scale(1.500000) translate(77.000000, 60.000000)">
        <path fill="#FFFFFF" d="M93.797,75.496 L143.072,75.496 L146.475,37.364 L93.797,37.364 L93.797,0.125 L93.926,0.125 L187.172,0.125 L186.279,10.116 L177.127,112.732 L93.797,112.732 L93.797,75.496 Z M93.797,75.496"></path>
        <path fill="#EBEBEB" d="M94.02,172.204 L93.857,172.25 L52.385,161.051 L49.733,131.353 L29.582,131.353 L12.354,131.353 L17.57,189.82 L93.848,210.996 L94.02,210.948 L94.02,172.204 Z M94.02,172.204"></path>
        <path fill="#FFFFFF" d="M139.907,111.156 L135.423,161.026 L93.891,172.236 L93.891,210.978 L170.23,189.82 L170.79,183.53 L177.268,111.156 L139.907,111.156 Z M139.907,111.156"></path>
        <path fill="#EBEBEB" d="M93.926,0.125 L93.926,23.253 L93.926,37.272 L93.926,37.364 L4.098,37.364 L3.979,37.364 L3.232,28.994 L1.535,10.116 L0.645,0.125 L93.926,0.125 Z M93.926,0.125"></path>
        <path fill="#EBEBEB" d="M93.797,75.5 L93.797,98.629 L93.797,112.646 L93.797,112.738 L52.969,112.738 L52.85,112.738 L52.104,104.369 L50.406,85.491 L49.516,75.5 L93.797,75.5 Z M93.797,75.5"></path>
    </g>
</svg>
